<svg xmlns="http://www.w3.org/2000/svg" fill="none" viewBox="0 0 164 164"><path fill="url(#paint0_linear)" d="M26.4 94L37 87.8c2-1 4.5-.9 7.3.7 6.2 3.6 11.3 13.3 11.3 21.6 0 4.6-1.5 7.8-4 9.2l-10.3 6-15-31.3z"/><path fill="url(#paint1_linear)" d="M82.2 126.2l10.8-6.1c2-1 4.5-1 7.2.6 6.3 3.7 11.4 13.3 11.4 21.7 0 4.6-1.6 7.8-4 9.2l-10.3 6-15-31.4z"/><path fill="url(#paint2_linear)" d="M17 80.6V29l82.9 3.5v51.7c0 1.1-.6 2.3-1.8 3l-32.8 19a7.5 7.5 0 01-7.5 0l-39-22.6a3.5 3.5 0 01-1.7-3z"/><path fill="url(#paint3_linear)" d="M98.1 29.5L59.1 7a7.5 7.5 0 00-7.5 0L18.8 26a3.5 3.5 0 000 6l39 22.5a7.5 7.5 0 007.5 0l32.8-19a3.5 3.5 0 000-6z"/><path fill="#DEA861" d="M85.5 22.2L43.6 46.4l-11-6.4 41.8-24.2 11.1 6.4z"/><path fill="#CC8241" d="M78.9 18.4L37 42.5l2.2 1.3L81 19.6 79 18.4z"/><path fill="#BA5C25" d="M43.6 46.4v9.1l-11-6.4V40l11 6.4z"/><path fill="url(#paint4_linear)" d="M143.6 96.6L130.4 89l-5.6-23.7a15 15 0 00-7-9.4l-17.1-10c-1-.5-2.2-.3-3 .3L67.9 63.4l-6 3.5 48.5 86.1 35.8-20.7v-31.1c0-1.9-1-3.6-2.6-4.6z"/><path fill="#E9E5F6" d="M114.5 128.6l5-3c.3-.1.7.1.7.5v4.3c0 .6-.3 1.2-.8 1.5l-5 2.9c-.3.1-.7 0-.7-.4V130c0-.6.3-1.1.8-1.4zM139.1 114.3l5-2.8c.3-.2.7 0 .7.3v4.4c0 .6-.3 1.2-.8 1.5l-5 2.9c-.3.1-.7 0-.7-.4v-4.4c0-.6.3-1.2.8-1.5z"/><path fill="#FFC538" d="M94.6 109.7L88.9 86a15 15 0 00-7-9.5l-17-9.8c-1.8-1-4 .2-4 2.3v33.3a3 3 0 01-4.6 2.7L19.6 83.7c-1.2-.7-2.6.2-2.6 1.5V95c0 2.4 1.3 4.7 3.4 6l72.8 42 17.2 10V122c0-2-1-3.7-2.6-4.6l-13.2-7.6z"/><path fill="url(#paint5_linear)" d="M123.7 68L93 85.5l4 18 30.6-17.7-4-18z"/><path fill="url(#paint6_linear)" d="M78.5 135.3c0-8.3 5-12.2 11.3-8.5C96 130.4 101 140 101 148.4s-5 12.2-11.3 8.6c-6.3-3.7-11.3-13.3-11.3-21.7z"/><path fill="#E9E5F6" d="M82.7 137.8c0-5.2 3.2-7.6 7-5.3 4 2.2 7.1 8.2 7.1 13.4 0 5.2-3.1 7.6-7 5.4-4-2.3-7-8.3-7-13.5z"/><path fill="#7662BD" d="M92 146.9c1.6-.7 1.9-3.5.7-6.3s-3.4-4.6-5-3.9c-1.6.7-2 3.5-.7 6.3 1.2 2.8 3.4 4.5 5 3.9z"/><path fill="url(#paint7_linear)" d="M22.6 103c0-8.3 5-12.1 11.3-8.5 6.3 3.6 11.3 13.3 11.3 21.6 0 8.4-5 12.2-11.3 8.6-6.2-3.6-11.3-13.3-11.3-21.6z"/><path fill="#E9E5F6" d="M38.2 119.5c3.1-1.3 3.7-6.8 1.4-12.3-2.3-5.5-6.8-9-9.9-7.6-3 1.3-3.7 6.9-1.4 12.4 2.4 5.5 6.8 8.9 9.9 7.5z"/><path fill="#7662BD" d="M36.1 114.6c1.6-.6 2-3.4.7-6.2-1.2-2.9-3.4-4.6-5-3.9-1.6.7-1.9 3.5-.7 6.3s3.4 4.5 5 3.8z"/><path fill="url(#paint8_linear)" d="M146.1 126.6l-36.7 20-6.8-3.2v8l5.8 3.3c1 .6 2.3.6 3.3 0l35.5-20.5c.5-.3.7-.8.7-1.2v-8l-1.8 1.6z"/><path fill="#A996EB" d="M104.2 142.5l6.2 3.6 35.8-20.7v-2.1l1 .6c1 .5 1 1.8 0 2.4l-35.5 20.5c-1 .6-2.3.6-3.3 0l-5.8-3.4 1.6-.9z"/><path fill="url(#paint9_linear)" d="M122.1 124.7l15-8.7v2.6c0 1.6-.8 3.1-2.2 4l-10.5 6c-1 .6-2.3-.1-2.3-1.3v-2.6z"/><path fill="url(#paint10_linear)" d="M81.6 84.3a5.5 5.5 0 00-2.6-3.6l-13.8-8v20l20.6 12-4.2-20.4z"/><defs><linearGradient id="paint0_linear" x1="42.1" x2="37.5" y1="103.1" y2="95" gradientUnits="userSpaceOnUse"><stop stop-color="#43386B"/><stop offset="1" stop-color="#7662BD"/></linearGradient><linearGradient id="paint1_linear" x1="98" x2="93.3" y1="135.4" y2="127.3" gradientUnits="userSpaceOnUse"><stop stop-color="#43386B"/><stop offset="1" stop-color="#7662BD"/></linearGradient><linearGradient id="paint2_linear" x1="68.2" x2="56.8" y1="68.1" y2="68.1" gradientUnits="userSpaceOnUse"><stop stop-color="#DEA861"/><stop offset="1" stop-color="#CC8241"/></linearGradient><linearGradient id="paint3_linear" x1="81.5" x2="38.9" y1="17.5" y2="42.1" gradientUnits="userSpaceOnUse"><stop stop-color="#DEA861"/><stop offset="1" stop-color="#EBCBA0"/></linearGradient><linearGradient id="paint4_linear" x1="130.3" x2="88.7" y1="134.1" y2="53.7" gradientUnits="userSpaceOnUse"><stop stop-color="#E37A34"/><stop offset="1" stop-color="#FFC538"/></linearGradient><linearGradient id="paint5_linear" x1="110.4" x2="110.4" y1="102.3" y2="71.7" gradientUnits="userSpaceOnUse"><stop stop-color="#43386B"/><stop offset="1" stop-color="#7662BD"/></linearGradient><linearGradient id="paint6_linear" x1="89.8" x2="89.8" y1="163" y2="122.1" gradientUnits="userSpaceOnUse"><stop stop-color="#43386B"/><stop offset="1" stop-color="#7662BD"/></linearGradient><linearGradient id="paint7_linear" x1="33.9" x2="33.9" y1="130.7" y2="89.8" gradientUnits="userSpaceOnUse"><stop stop-color="#43386B"/><stop offset="1" stop-color="#7662BD"/></linearGradient><linearGradient id="paint8_linear" x1="108.9" x2="114.4" y1="140.1" y2="140.1" gradientUnits="userSpaceOnUse"><stop stop-color="#43386B"/><stop offset="1" stop-color="#7662BD"/></linearGradient><linearGradient id="paint9_linear" x1="129.7" x2="129.7" y1="128.4" y2="117.4" gradientUnits="userSpaceOnUse"><stop stop-color="#43386B"/><stop offset="1" stop-color="#594A8E"/></linearGradient><linearGradient id="paint10_linear" x1="75.5" x2="75.5" y1="103.5" y2="76.1" gradientUnits="userSpaceOnUse"><stop stop-color="#43386B"/><stop offset="1" stop-color="#7662BD"/></linearGradient></defs></svg>