<svg xmlns="http://www.w3.org/2000/svg" fill="none" viewBox="0 0 164 164"><g clip-path="url(#clip0)"><path fill="url(#paint0_linear)" d="M105.8 11l-3.1-1.8c-.4-.3-1-.3-1.5 0l-87 50.5c-1.3.7-2.2 2.5-2.2 4v85.5c0 .9.3 1.5.8 1.8l3 1.7c.5.3 1 .3 1.6 0l87-50.5c1.3-.7 2.2-2.5 2.2-4V12.7c0-.9-.3-1.5-.8-1.7z"/><path fill="url(#paint1_linear)" d="M104.5 102.2l-87.1 50.5c-1.2.7-2.1 0-2.1-1.6V65.7c0-1.6 1-3.4 2-4L104.6 11c1.2-.6 2.1 0 2.1 1.6v85.5c0 1.5-1 3.3-2.1 4z"/><path fill="#E9E5F6" d="M61 127.5l43.5-25.3c1.2-.7 2.1-2.5 2.1-4V12.7c0-1.5-1-2.2-2.1-1.6L60.9 36.4v91z"/><path fill="#fff" d="M31.2 73.6l20-11.5v5.2l-20 11.5v-5.2z"/><path fill="#594A8E" d="M69.4 81.1l19.9-11.5v5.2l-20 11.5v-5.2zM69.4 95.6l19.9-11.5v5.2l-20 11.5v-5.2z"/><path fill="#fff" d="M31.2 118.3l20-11.5v5.2l-20 11.5v-5.2z"/><path fill="#fff" d="M100.4 21.7v74.6l-79 45.8V67.5l79-45.8zm4-10.6l-87 50.5c-1.2.7-2.1 2.5-2.1 4v85.5c0 1.6 1 2.3 2 1.6l87.2-50.5c1.2-.7 2.1-2.5 2.1-4V12.7c0-1.5-1-2.2-2.1-1.6z"/><path fill="url(#paint2_linear)" d="M15.3 140.5V151.8l6.1-11.6v-11.5l-6.1 11.8z"/><path fill="url(#paint3_linear)" d="M45.7 128L39.6 140l8.6-5 6.1-11.8-8.6 5z"/><path fill="url(#paint4_linear)" d="M67.4 40.9l8.6-5L82.2 24l-8.6 5-6.2 11.8z"/><path fill="url(#paint5_linear)" d="M100.4 35l6.2-11.8V12.7l-.1-.8-6 11.6V35z"/><path fill="url(#paint6_linear)" d="M15.3 106.9l6.1-11.8V83.7l-6.1 11.8v11.4z"/><path fill="url(#paint7_linear)" d="M106.6 57.3L100.4 69v11.4l6.2-11.8V57.3z"/><path fill="url(#paint8_linear)" d="M33.6 60.5l8.6-5 6.2-11.8-8.6 5-6.2 11.8z"/><path fill="url(#paint9_linear)" d="M80 108.2L73.7 120l8.6-5 6.1-11.8-8.6 5z"/><g><path fill="url(#paint10_linear)" d="M22.3 149.9l8.6-5L37 133l-8.6 5-6.2 11.8z"/><path fill="url(#paint11_linear)" d="M62.8 118.1L56.7 130l8.6-5 6.1-11.7-8.6 5z"/><path fill="url(#paint12_linear)" d="M21.4 106.3L15.3 118v11.4l6.1-11.8v-11.4z"/><path fill="url(#paint13_linear)" d="M84.5 31l8.6-5 6.2-11.8-8.6 5L84.5 31z"/><path fill="url(#paint14_linear)" d="M15.3 73v11.5l6.1-11.8v-5.2l4-2.2 6.1-11.8-8.6 5L15.3 73z"/><path fill="url(#paint15_linear)" d="M100.4 46.3v11.4l6.2-11.8V34.5l-6.2 11.8z"/><path fill="url(#paint16_linear)" d="M106.6 80l-6.2 11.8v4.5l-3.4 2-6.1 11.8 8.6-5 7.1-13.6V80z"/><path fill="url(#paint17_linear)" d="M50.6 50.6l8.6-5 6.1-11.8-8.6 5-6.1 11.8z"/></g><g><path fill="#594A8E" d="M96.9 51.3l-14.7 8.5V40.2L97 31.8v19.5zM83.7 57l11.7-6.8V34.6l-11.7 6.7V57z"/></g><g><path fill="#FF2741" d="M83 63.8c-3.4 2-6-.1-6-4.6 0-4.4 2.6-9.6 6-11.5 3.3-2 6 .1 6 4.5 0 4.5-2.7 9.7-6 11.6zm0-14.2c-2.6 1.5-4.6 5.4-4.6 8.8 0 3.3 2 4.9 4.6 3.4 2.5-1.4 4.5-5.3 4.5-8.7 0-3.4-2-5-4.5-3.5z"/></g><g><path fill="#FF2741" d="M76.7 55.8l-8.5 4.9c-.4.2-.7 0-.7-.6 0-.5.3-1.1.7-1.4l8.5-4.9c.4-.2.7 0 .7.6 0 .5-.3 1.2-.7 1.4z"/></g><g><path fill="#FF2741" d="M75.4 61l-8.5 5c-.4.2-.7 0-.7-.6 0-.5.3-1.1.7-1.4l8.5-4.9c.4-.2.7 0 .7.6 0 .5-.3 1.2-.7 1.4z"/></g><g><path fill="#FF2741" d="M76.7 64.9l-8.5 4.9c-.4.2-.7 0-.7-.6 0-.5.3-1.1.7-1.4l8.5-4.9c.4-.2.7 0 .7.6 0 .5-.3 1.1-.7 1.4z"/></g><g><path fill="#FFC538" d="M41 100.2c-3 1.8-5.6-.2-5.6-4.3 0-4.2 2.5-9 5.6-10.9 3.2-1.8 5.7.1 5.7 4.3s-2.5 9-5.7 10.9zM41 83.4c-.3.2-.6 0-.6-.6v-3.6c0-.5.3-1 .6-1.3.4-.2.7 0 .7.5v3.7c0 .5-.3 1-.7 1.3zM35.7 89.4h-.5l-2-1.4c-.2-.2-.2-.8 0-1.3.3-.5.8-.7 1-.5l2 1.4c.2.2.2.8 0 1.3l-.5.5zM33.4 97.9l-2.7 1.6c-.4.2-.7 0-.7-.6 0-.5.3-1 .7-1.3l2.7-1.5c.4-.2.7 0 .7.5s-.3 1-.7 1.3zM33.7 107.4c-.1.1-.3.2-.4 0-.3-.1-.3-.7 0-1.2l1.9-3.7c.2-.5.7-.8 1-.6.2.2.2.8 0 1.3l-2 3.7c-.1.3-.3.4-.5.5zM41 107.3c-.3.2-.6 0-.6-.6v-3.6c0-.5.3-1 .6-1.3.4-.2.7 0 .7.5v3.7c0 .5-.3 1-.7 1.3zM48.3 99c-.1.1-.3.1-.4 0l-2-1.4c-.2-.2-.2-.8 0-1.3.3-.5.7-.8 1-.6l2 1.5c.2.2.2.8 0 1.3l-.6.5zM51.4 87.5l-2.8 1.6c-.3.2-.6 0-.6-.5s.3-1 .6-1.3l2.8-1.6c.3-.2.6 0 .6.5s-.3 1.1-.6 1.3zM46.4 83.2H46c-.2-.2-.2-.7 0-1.2l2-3.7c.2-.5.7-.8 1-.6.2.2.2.8 0 1.3l-2 3.7-.5.5z"/></g><g clip-path="url(#clip1)"><path fill="url(#paint18_linear)" d="M155.1 128.7V77.4L73 81v51.3c0 1.2.6 2.3 1.7 3l32.6 18.8a7.5 7.5 0 007.5 0l38.7-22.3a3.5 3.5 0 001.7-3z"/><path fill="url(#paint19_linear)" d="M74.6 78l38.7-22.4a7.5 7.5 0 017.5 0l32.6 18.8a3.5 3.5 0 010 6l-38.7 22.4a7.5 7.5 0 01-7.5 0L74.6 84a3.5 3.5 0 010-6z"/><path fill="#DEA861" d="M87.2 70.7l41.5 24 11-6.4-41.5-24-11 6.4z"/><path fill="#CC8241" d="M93.8 66.9l41.5 24-2.1 1.2-41.6-24 2.2-1.2z"/><g fill="#5D3645"><path d="M152.4 93.7l-3.7-5.5-3.6 9.7 2-1.1v3.3l3.4-2v-3.3l1.9-1.1zM152.4 97.8L145 102v1.8l7.3-4.2v-1.8z"/></g><path fill="#CC8241" d="M128.7 94.7v9l11-6.3v-9.1l-11 6.4z"/></g></g><defs><linearGradient id="paint0_linear" x1="50.8" x2="57.1" y1="95.7" y2="84.8" gradientUnits="userSpaceOnUse"><stop stop-color="#C5BAEB"/><stop offset="1" stop-color="#E9E5F6"/></linearGradient><linearGradient id="paint1_linear" x1="23.3" x2="95.2" y1="147.1" y2="22.5" gradientUnits="userSpaceOnUse"><stop stop-color="#0197F8"/><stop offset="1" stop-color="#79D3FE"/></linearGradient><linearGradient id="paint2_linear" x1="15.3" x2="21.4" y1="142" y2="142" gradientUnits="userSpaceOnUse"><stop offset="0" stop-color="#145EC7"/><stop offset="1" stop-color="#2F97F7"/></linearGradient><linearGradient id="paint3_linear" x1="39.6" x2="54.3" y1="135.7" y2="135.7" gradientUnits="userSpaceOnUse"><stop offset="0" stop-color="#145EC7"/><stop offset="1" stop-color="#2F97F7"/></linearGradient><linearGradient id="paint4_linear" x1="67.4" x2="82.2" y1="36.7" y2="36.7" gradientUnits="userSpaceOnUse"><stop offset="0" stop-color="#145EC7"/><stop offset="1" stop-color="#2F97F7"/></linearGradient><linearGradient id="paint5_linear" x1="100.4" x2="106.6" y1="25.2" y2="25.2" gradientUnits="userSpaceOnUse"><stop offset="0" stop-color="#145EC7"/><stop offset="1" stop-color="#2F97F7"/></linearGradient><linearGradient id="paint6_linear" x1="15.3" x2="21.4" y1="97" y2="97" gradientUnits="userSpaceOnUse"><stop offset="0" stop-color="#145EC7"/><stop offset="1" stop-color="#2F97F7"/></linearGradient><linearGradient id="paint7_linear" x1="100.4" x2="106.6" y1="70.6" y2="70.6" gradientUnits="userSpaceOnUse"><stop offset="0" stop-color="#145EC7"/><stop offset="1" stop-color="#2F97F7"/></linearGradient><linearGradient id="paint8_linear" x1="33.6" x2="48.4" y1="56.3" y2="56.3" gradientUnits="userSpaceOnUse"><stop offset="0" stop-color="#145EC7"/><stop offset="1" stop-color="#2F97F7"/></linearGradient><linearGradient id="paint9_linear" x1="73.8" x2="88.5" y1="115.9" y2="115.9" gradientUnits="userSpaceOnUse"><stop offset="0" stop-color="#145EC7"/><stop offset="1" stop-color="#2F97F7"/></linearGradient><linearGradient id="paint10_linear" x1="22.3" x2="37.1" y1="145.7" y2="145.7" gradientUnits="userSpaceOnUse"><stop stop-color="#AB2C37"/><stop offset="1" stop-color="#FF4757"/></linearGradient><linearGradient id="paint11_linear" x1="56.7" x2="71.4" y1="125.8" y2="125.8" gradientUnits="userSpaceOnUse"><stop stop-color="#AB2C37"/><stop offset="1" stop-color="#FF4757"/></linearGradient><linearGradient id="paint12_linear" x1="15.3" x2="21.4" y1="119.7" y2="119.7" gradientUnits="userSpaceOnUse"><stop stop-color="#AB2C37"/><stop offset="1" stop-color="#FF4757"/></linearGradient><linearGradient id="paint13_linear" x1="84.5" x2="99.3" y1="26.8" y2="26.8" gradientUnits="userSpaceOnUse"><stop stop-color="#AB2C37"/><stop offset="1" stop-color="#FF4757"/></linearGradient><linearGradient id="paint14_linear" x1="15.3" x2="31.5" y1="73.6" y2="73.6" gradientUnits="userSpaceOnUse"><stop stop-color="#AB2C37"/><stop offset="1" stop-color="#FF4757"/></linearGradient><linearGradient id="paint15_linear" x1="100.4" x2="106.6" y1="47.9" y2="47.9" gradientUnits="userSpaceOnUse"><stop stop-color="#AB2C37"/><stop offset="1" stop-color="#FF4757"/></linearGradient><linearGradient id="paint16_linear" x1="90.9" x2="106.6" y1="99.6" y2="99.6" gradientUnits="userSpaceOnUse"><stop stop-color="#AB2C37"/><stop offset="1" stop-color="#FF4757"/></linearGradient><linearGradient id="paint17_linear" x1="50.6" x2="65.3" y1="46.5" y2="46.5" gradientUnits="userSpaceOnUse"><stop stop-color="#AB2C37"/><stop offset="1" stop-color="#FF4757"/></linearGradient><linearGradient id="paint18_linear" x1="104.4" x2="115.7" y1="116.2" y2="116.2" gradientUnits="userSpaceOnUse"><stop stop-color="#CC8241"/><stop offset="1" stop-color="#DEA861"/></linearGradient><linearGradient id="paint19_linear" x1="91.1" x2="133.4" y1="65.9" y2="90.4" gradientUnits="userSpaceOnUse"><stop stop-color="#DEA861"/><stop offset="1" stop-color="#EBCBA0"/></linearGradient><clipPath id="clip0"><path fill="#fff" d="M0 0h164v164H0z"/></clipPath><clipPath id="clip1"><path fill="#fff" d="M0 0h100.5v100.5H0z" transform="translate(63.8 54.6)"/></clipPath></defs></svg>