<svg xmlns="http://www.w3.org/2000/svg" fill="none" viewBox="0 0 164 164"><path fill="url(#paint0_linear)" d="M130.3 114.4V45.6L20 50.4V119c0 1.6.8 3.1 2.3 4L66 148.4a10 10 0 0010 0l52-30a4.6 4.6 0 002.3-4z"/><path fill="url(#paint1_linear)" d="M22.3 46.3l52-30a10 10 0 0110 0L128 41.6a4.7 4.7 0 010 8l-52 30a10 10 0 01-10 0L22.3 54.4a4.7 4.7 0 010-8z"/><path fill="#DEA861" d="M39.2 36.6l55.7 32.2 14.8-8.6-55.8-32.1-14.7 8.5z"/><g fill="#CC8241"><path d="M48 31.5l55.7 32.2-2.9 1.6-55.7-32.1 2.9-1.7z"/><path d="M94.9 68.8V81l14.8-8.6V60.2l-14.8 8.6z"/></g><g><path fill="url(#paint2_linear)" d="M144.6 61l-8.3-4.8c-4-2.8-9.4-2.6-15.4 1.2-11 7-19.7 23.9-20 38.6a23.6 23.6 0 003.7 14.8L118 128c.3.4.5.6.8.7l8.3 4.8L144.6 61z"/><path fill="url(#paint3_linear)" d="M151 77.4c0-15.9-9.9-23-22-15.3-10.8 7-19.6 24-20 38.6a23.6 23.6 0 003.8 14.8l13.4 17.2c1.9 2.4 5.8.1 7.7-4.5l13.4-32.6c2.3-5.9 3.8-12.2 3.8-18.2z"/><path fill="url(#paint4_linear)" d="M145.4 73.5l-6.2-3.5c-2.4-1.3-5.6-1.1-9 .8-7.8 4.5-14 16.6-14 27 0 5.7 1.8 9.7 4.8 11.4l5.7 3.3 18.7-39z"/><path fill="#F2EFFA" d="M147.3 97.8c4.7-11 3.4-22-2.8-24.7-6.2-2.6-15 4.1-19.7 15.1-4.7 11-3.5 22 2.8 24.7 6.2 2.7 15-4 19.7-15z"/></g><defs><linearGradient id="paint0_linear" x1="62.2" x2="77.4" y1="97.7" y2="97.7" gradientUnits="userSpaceOnUse"><stop stop-color="#CC8241"/><stop offset="1" stop-color="#DEA861"/></linearGradient><linearGradient id="paint1_linear" x1="44.4" x2="101.2" y1="30.3" y2="63" gradientUnits="userSpaceOnUse"><stop stop-color="#DEA861"/><stop offset="1" stop-color="#EBCBA0"/></linearGradient><linearGradient id="paint2_linear" x1="120.6" x2="135.2" y1="97.4" y2="72" gradientUnits="userSpaceOnUse"><stop stop-color="#AB2C37"/><stop offset="1" stop-color="#FF7A85"/></linearGradient><linearGradient id="paint3_linear" x1="109" x2="160.5" y1="109.4" y2="109.4" gradientUnits="userSpaceOnUse"><stop stop-color="#FF4757"/><stop offset="1" stop-color="#FF7A85"/></linearGradient><linearGradient id="paint4_linear" x1="129.4" x2="135.2" y1="87" y2="76.9" gradientUnits="userSpaceOnUse"><stop stop-color="#C5BAEB"/><stop offset="1" stop-color="#D7D1EB"/></linearGradient></defs></svg>