<svg xmlns="http://www.w3.org/2000/svg" fill="none" viewBox="0 0 937 980"><path fill="#F7F7F7" d="M0 0h937v982H0V0z"/><path fill="#283044" fill-opacity=".1" d="M493.2 144.1h-27V172H452v-68.3h44.4v11.4h-30.3v17.7h27V144zm38.4 27.9a15 15 0 01-1.4-4.5 16.4 16.4 0 01-12.8 5.4c-5 0-9-1.4-12.3-4.3a13.9 13.9 0 01-5-10.8c0-5.4 2-9.6 6-12.4 4-2.9 9.8-4.4 17.3-4.4h6.3v-2.9c0-2.3-.6-4.2-1.9-5.6-1.1-1.4-3-2.1-5.6-2.1-2.3 0-4.1.5-5.4 1.6-1.3 1.1-2 2.6-2 4.5h-13.5c0-3 1-5.6 2.7-8.1 1.8-2.5 4.4-4.5 7.7-5.9 3.3-1.4 7-2.2 11.2-2.2a22 22 0 0114.8 4.8c3.7 3.1 5.6 7.5 5.6 13.2v22c0 4.8.7 8.4 2 10.9v.8h-13.7zm-11.2-9.4c2 0 3.8-.5 5.5-1.3a9 9 0 003.8-3.6v-8.8h-5c-6.9 0-10.5 2.4-11 7v.9c0 1.7.6 3 1.8 4.1a7 7 0 004.9 1.7zM581 158c0-1.7-.8-3-2.4-4a27 27 0 00-8-2.5c-12-2.5-18-7.6-18-15.4 0-4.5 1.8-8.2 5.6-11.2 3.7-3 8.6-4.6 14.6-4.6 6.5 0 11.6 1.6 15.5 4.6 3.8 3 5.8 7 5.8 11.8h-13.6c0-2-.6-3.5-1.9-4.8-1.2-1.3-3.2-1.9-5.8-1.9-2.3 0-4 .5-5.3 1.5a4.9 4.9 0 00-1.9 4c0 1.5.7 2.7 2.1 3.6a23 23 0 007.2 2.4c3.4.7 6.3 1.4 8.6 2.3 7.1 2.6 10.7 7.2 10.7 13.6 0 4.6-2 8.4-6 11.3-4 2.8-9 4.2-15.3 4.2-4.3 0-8-.7-11.4-2.2a19.3 19.3 0 01-7.7-6.2 14.6 14.6 0 01-2.8-8.6h12.8a7 7 0 002.7 5.5c1.7 1.3 3.9 2 6.7 2 2.6 0 4.5-.6 5.8-1.5 1.4-1 2-2.3 2-4zm38.2-49.2v12.5h8.7v10h-8.7v25.2c0 2 .4 3.3 1 4 .8.9 2.2 1.3 4.2 1.3 1.5 0 2.8-.1 4-.3v10.2c-2.7.8-5.4 1.2-8.2 1.2-9.5 0-14.4-4.8-14.5-14.4v-27.3h-7.5v-10h7.5v-12.4h13.5zM487.5 267.1c0-2.7-1-4.7-2.8-6.1a36 36 0 00-10.2-4.5 73 73 0 01-11.5-4.7c-7.8-4.2-11.7-9.8-11.7-17 0-3.6 1-6.9 3.1-9.8 2.1-2.9 5.1-5.1 9-6.8 3.9-1.6 8.3-2.4 13.1-2.4 4.9 0 9.2.9 13 2.7a19.5 19.5 0 0112 18.4h-14c0-3.1-1-5.5-3-7.3a12 12 0 00-8.2-2.6c-3.5 0-6.1.8-8 2.2a6.8 6.8 0 00-2.9 5.7c0 2.3 1.1 4.1 3.3 5.6 2.3 1.5 5.6 3 10 4.2 8 2.4 13.8 5.4 17.4 9 3.7 3.6 5.5 8 5.5 13.3 0 6-2.2 10.5-6.7 14-4.5 3.3-10.5 5-18 5-5.3 0-10-1-14.4-3a20.3 20.3 0 01-13.3-19.5h14.1c0 7.6 4.5 11.3 13.5 11.3 3.4 0 6-.6 7.9-2a6.7 6.7 0 002.8-5.7zm46.1 18.8a25 25 0 01-18.2-6.8c-4.6-4.6-7-10.6-7-18.2v-1.4c0-5 1-9.6 3-13.6s4.7-7.1 8.3-9.3c3.7-2.2 7.8-3.3 12.4-3.3a21 21 0 0116.4 6.6c4 4.4 6 10.6 6 18.6v5.5h-32.3a12 12 0 0012.3 11c5.2 0 9.3-1.9 12.2-5.7l6.7 7.5c-2 2.9-4.8 5.1-8.3 6.7a27.3 27.3 0 01-11.5 2.4zm-1.5-41.6c-2.7 0-5 1-6.6 2.7a14.2 14.2 0 00-3.2 7.8h18.9v-1c-.1-3-1-5.4-2.5-7-1.5-1.7-3.8-2.5-6.6-2.5zm58.6 2.7c-1.8-.3-3.5-.4-4.9-.4-5.1 0-8.5 1.7-10 5.2V285h-13.6v-50.7H575l.4 6c2.7-4.6 6.5-7 11.3-7 1.5 0 2.9.2 4.2.7l-.2 13zm26.4 21.5l9.4-34.2h14.2L623.6 285h-13l-17-50.7h14l9.5 34.2zM661 285h-13.6v-50.7H661V285zm-14.4-63.8c0-2 .6-3.7 2-5 1.4-1.4 3.2-2 5.6-2 2.3 0 4.1.6 5.5 2 1.4 1.3 2 3 2 5s-.6 3.7-2 5a7.6 7.6 0 01-5.5 2c-2.3 0-4.2-.7-5.6-2-1.3-1.3-2-3-2-5zm46.7 53.8c2.5 0 4.5-.7 6-2a7.2 7.2 0 002.5-5.5h12.7c0 3.4-1 6.6-2.8 9.4-1.9 2.9-4.4 5.1-7.6 6.7a23.8 23.8 0 01-10.6 2.3 22 22 0 01-17.2-6.9c-4.1-4.6-6.2-11-6.2-19v-1c0-7.8 2-14 6.2-18.7 4.2-4.6 9.9-7 17.1-7 6.4 0 11.4 1.9 15.2 5.5a19 19 0 015.9 14.4h-12.7c0-2.7-.9-4.8-2.4-6.4a8.1 8.1 0 00-6.2-2.5 8.2 8.2 0 00-7.2 3.5c-1.6 2.3-2.4 6-2.4 11.1v1.4c0 5.3.8 9 2.4 11.3 1.6 2.3 4 3.4 7.3 3.4zm52.3 11a25 25 0 01-18.2-7c-4.7-4.5-7-10.5-7-18.1v-1.4c0-5 1-9.6 3-13.6s4.7-7.1 8.3-9.3c3.6-2.2 7.8-3.3 12.4-3.3a21 21 0 0116.3 6.6c4 4.4 6 10.6 6 18.6v5.5h-32.3c.5 3.4 1.8 6 4 8s5 3 8.4 3c5.2 0 9.3-1.9 12.2-5.7l6.7 7.5c-2 2.9-4.8 5.1-8.3 6.7a27.3 27.3 0 01-11.5 2.4zm-1.6-41.7c-2.7 0-4.8 1-6.5 2.7a14.1 14.1 0 00-3.2 7.8H753v-1c0-3-.9-5.4-2.4-7-1.6-1.7-3.8-2.5-6.7-2.5z"/><path fill="url(#paint0_linear)" fill-opacity=".2" d="M752.5 979.5L1.5 526V137.5l938.5 593v249H752.5z"/><path stroke="#fff" stroke-dasharray="40 100" stroke-linecap="round" stroke-linejoin="round" stroke-width="20" d="M907.5 885L84 352.5"/><path fill="url(#paint1_linear)" d="M265 551.4l39-22.4c7.1-3.8 16.2-3.2 26.2 2.5 22.7 13.1 41 48.2 41 78.4 0 16.7-5.5 28.3-14.3 33.3l-37.4 21.6L265 551.4z"/><path fill="url(#paint2_linear)" d="M419.3 640.8l39-22.5c7-3.7 16.2-3.2 26.2 2.6 22.6 13 41 48.2 41 78.4 0 16.6-5.6 28.3-14.3 33.2l-37.5 21.6-54.4-113.3z"/><path fill="url(#paint3_linear)" d="M231.2 477.3v-187l300.2 12.9v187c0 4.3-2.1 8.6-6.4 11L406.1 570a27.3 27.3 0 01-27.3 0l-141.2-81.5a12.6 12.6 0 01-6.4-11z"/><path fill="url(#paint4_linear)" d="M525 292.2l-141.2-81.5a27.3 27.3 0 00-27.3 0l-119 68.6a12.7 12.7 0 000 22L378.9 383a27.3 27.3 0 0027.3 0l119-68.7a12.7 12.7 0 000-22z"/><path fill="#DEA861" d="M479.3 265.8l-151.7 87.5-40.2-23.2L439 242.5l40.3 23.3z"/><path fill="#CC8241" d="M455.2 251.9l-151.6 87.5 7.8 4.6 151.7-87.6-7.9-4.5z"/><path fill="url(#paint5_linear)" d="M650.3 568l-28.7-120.5a54 54 0 00-25.6-34.3l-61.8-35.7a9.6 9.6 0 00-10.8.8l-108 62.4-21.7 12.5 125.4 275L646.2 655c.9-.4 1.7-.9 2.5-1.5 2.4-1.8 4-4.7 4-8.2v-56.8c0-6.9-.8-13.7-2.4-20.4z"/><path fill="#E9E5F6" d="M538 646l18.1-10.5c1-.6 2.4.2 2.4 1.4v16a6 6 0 01-3 5.2l-18 10.4c-1.2.6-2.5-.1-2.5-1.4v-15.9a6 6 0 013-5.2zM627.1 594.5l18.1-10.5c1.1-.6 2.5.2 2.5 1.4v16a6 6 0 01-3 5.2L626.4 617c-1 .6-2.4-.1-2.4-1.4v-15.9a6 6 0 013-5.2z"/><path fill="#06DAAE" d="M389.9 557v-96c0-7.6 8-12.2 14.5-8.5l61.8 35.7a54 54 0 0125.6 34.3L520.5 643a87.9 87.9 0 012.4 20.4v56.8c0 8-8.7 13-15.7 9L243.4 576.6A24.8 24.8 0 01231 555v-60c0-4.8 5.3-7.9 9.5-5.4l132.8 77a11 11 0 0016.6-9.5z"/><path fill="url(#paint6_linear)" d="M405.8 573v-98.6l49.9 28.8a20 20 0 019.6 13.3l21 103-80.5-46.6z"/><path fill="url(#paint7_linear)" d="M617.6 457L507 521l22.7 98.5 110.8-64-22.8-98.5z"/><path fill="url(#paint8_linear)" d="M405.6 673.7c0-30.3 18.3-44.2 41-31 22.7 13 41 48.1 41 78.3 0 30.3-18.3 44.2-41 31-22.7-13-41-48.1-41-78.3z"/><path fill="#E9E5F6" d="M462.2 733.2c11.2-4.8 13.5-24.8 5-44.8-8.5-19.9-24.5-32.2-35.8-27.4-11.3 4.9-13.5 24.9-5 44.8 8.5 20 24.5 32.2 35.8 27.4z"/><path fill="#7662BD" d="M454.6 715.5c5.8-2.4 7-12.6 2.6-22.8-4.3-10.2-12.5-16.4-18.3-14-5.7 2.5-6.9 12.7-2.5 22.9 4.3 10.1 12.5 16.4 18.2 14z"/><path fill="url(#paint9_linear)" d="M251.3 584.3c0-30.2 18.4-44.1 41-31 22.7 13 41 48.2 41 78.4 0 30.2-18.3 44.1-41 31-22.6-13-41-48.2-41-78.4z"/><path fill="#E9E5F6" d="M307.9 644c11.3-4.8 13.5-24.9 5-44.8-8.5-20-24.5-32.2-35.8-27.4-11.3 4.8-13.5 24.8-5 44.8 8.5 19.9 24.5 32.2 35.8 27.4z"/><path fill="#7662BD" d="M279.3 600.5c0-9.6 5.9-14 13-9.8 7.2 4.1 13 15.2 13 24.8 0 9.6-5.8 14-13 9.9-7.1-4.2-13-15.3-13-25z"/><path fill="url(#paint10_linear)" d="M652.4 639.5l-133.2 73-24.6-11.9v28.6l21 12.2a12 12 0 0012 0L656.5 667a5 5 0 002.5-4.3v-28.6l-6.5 5.4z"/><path fill="#A996EB" d="M500.3 697.4l22.6 13 129.8-75v-7.7l3.7 2a5 5 0 010 8.8l-128.7 74.3a12 12 0 01-12 0l-21-12.2 5.6-3.2z"/><path fill="url(#paint11_linear)" d="M565.6 660.3l54.4-31.5v9.4c0 6-3.1 11.4-8.3 14.4l-38 21.9a5.5 5.5 0 01-8.1-4.7v-9.5z"/><path fill="url(#paint12_linear)" d="M150.5 358.3L245 413c4.9 2.8 7.8 8 7.8 13.5 0 4.8-5.2 7.9-9.4 5.4l-94.5-54.5c-4.8-2.8-7.8-8-7.8-13.5 0-4.9 5.2-7.9 9.4-5.5z"/><path fill="url(#paint13_linear)" d="M185 418.5l94.6 54.5c4.8 2.8 7.8 8 7.8 13.5 0 4.9-5.3 8-9.5 5.5l-94.5-54.5c-4.8-2.8-7.8-8-7.8-13.6 0-4.8 5.3-7.8 9.5-5.4z"/><defs><linearGradient id="paint0_linear" x1="721.5" x2="-8.5" y1="1082.5" y2="390" gradientUnits="userSpaceOnUse"><stop stop-color="#78A1BB"/><stop offset="1" stop-color="#fff" stop-opacity="0"/></linearGradient><linearGradient id="paint1_linear" x1="322" x2="305.2" y1="584.5" y2="555.2" gradientUnits="userSpaceOnUse"><stop stop-color="#43386B"/><stop offset="1" stop-color="#7662BD"/></linearGradient><linearGradient id="paint2_linear" x1="476.3" x2="459.4" y1="673.8" y2="644.6" gradientUnits="userSpaceOnUse"><stop stop-color="#43386B"/><stop offset="1" stop-color="#7662BD"/></linearGradient><linearGradient id="paint3_linear" x1="416.5" x2="375.2" y1="431.9" y2="431.9" gradientUnits="userSpaceOnUse"><stop stop-color="#DEA861"/><stop offset="1" stop-color="#CC8241"/></linearGradient><linearGradient id="paint4_linear" x1="464.9" x2="310.5" y1="248.5" y2="337.7" gradientUnits="userSpaceOnUse"><stop stop-color="#DEA861"/><stop offset="1" stop-color="#EBCBA0"/></linearGradient><linearGradient id="paint5_linear" x1="559.5" x2="504.5" y1="566.8" y2="471.7" gradientUnits="userSpaceOnUse"><stop stop-color="#236568"/><stop offset=".2" stop-color="#276A6C"/><stop offset=".3" stop-color="#337878"/><stop offset=".5" stop-color="#478E8C"/><stop offset=".7" stop-color="#62AFA7"/><stop offset=".9" stop-color="#86D7CA"/><stop offset="1" stop-color="#9BF0DF"/></linearGradient><linearGradient id="paint6_linear" x1="446.1" x2="446.1" y1="614.4" y2="489.9" gradientUnits="userSpaceOnUse"><stop stop-color="#43386B"/><stop offset="1" stop-color="#7662BD"/></linearGradient><linearGradient id="paint7_linear" x1="573.6" x2="573.6" y1="613.8" y2="474.4" gradientUnits="userSpaceOnUse"><stop stop-color="#43386B"/><stop offset="1" stop-color="#7662BD"/></linearGradient><linearGradient id="paint8_linear" x1="446.6" x2="446.6" y1="773.8" y2="625.8" gradientUnits="userSpaceOnUse"><stop stop-color="#43386B"/><stop offset="1" stop-color="#7662BD"/></linearGradient><linearGradient id="paint9_linear" x1="292.3" x2="292.3" y1="684.5" y2="536.4" gradientUnits="userSpaceOnUse"><stop stop-color="#43386B"/><stop offset="1" stop-color="#7662BD"/></linearGradient><linearGradient id="paint10_linear" x1="517.6" x2="537.5" y1="688.6" y2="688.6" gradientUnits="userSpaceOnUse"><stop stop-color="#43386B"/><stop offset="1" stop-color="#7662BD"/></linearGradient><linearGradient id="paint11_linear" x1="592.8" x2="592.8" y1="673.6" y2="633.8" gradientUnits="userSpaceOnUse"><stop stop-color="#43386B"/><stop offset="1" stop-color="#594A8E"/></linearGradient><linearGradient id="paint12_linear" x1="261.3" x2="149" y1="434.7" y2="365.6" gradientUnits="userSpaceOnUse"><stop stop-color="#43386B"/><stop offset="1" stop-color="#7662BD"/></linearGradient><linearGradient id="paint13_linear" x1="295.8" x2="183.6" y1="494.8" y2="425.8" gradientUnits="userSpaceOnUse"><stop stop-color="#43386B"/><stop offset="1" stop-color="#7662BD"/></linearGradient></defs></svg>